<svg width="88" height="8" viewBox="0 0 88 8" fill="none" xmlns="http://www.w3.org/2000/svg">
<path d="M1.58749 2.21396V7.76816H0.696838V0.561737H1.64643L4.24306 5.05473L6.77094 0.561737H7.70088V7.76816H6.81023V2.22375L4.34785 6.54043H4.11536L1.58749 2.21396Z" fill="black"/>
<path d="M16.3094 6.26289H12.6486L12.0494 7.77144H11.1293L14.0468 0.565002H14.9473L17.855 7.77144H16.9054L16.3127 6.26289H16.3094ZM16.0082 5.51841L14.479 1.63601L12.94 5.51841H16.0115H16.0082Z" fill="black"/>
<path d="M21.7155 1.3454H20.2125V0.561737H24.1058V1.3454H22.6029V7.76816H21.7122V1.3454H21.7155Z" fill="black"/>
<path d="M28.5133 4.97637H28.4937V7.76816H27.603V0.561737H29.1617C30.8971 0.561737 31.8369 1.42049 31.8369 2.67762C31.8369 3.93475 30.8873 4.73474 29.6168 4.92739L32.1447 7.76816H31.0215L28.5133 4.97637ZM28.4937 1.37478V4.18617H29.201C30.2193 4.18617 30.9364 3.53965 30.9364 2.67762C30.9266 2.0213 30.4616 1.37152 29.2206 1.37152H28.4937V1.37478Z" fill="black"/>
<path d="M35.74 0.561737H36.6306V7.76816H35.74V0.561737Z" fill="black"/>
<path d="M43.0256 4.57148L41.1068 7.76816H40.1179L42.4428 3.95107L40.3406 0.561737H41.3491L43.0354 3.29476L44.7414 0.561737H45.7107L43.6183 3.93475L45.9726 7.77143H44.9837L43.0256 4.57474V4.57148Z" fill="black"/>
<path d="M54.8791 2.21396V7.76816H53.9884V0.561737H54.938L57.5346 5.05473L60.0625 0.561737H60.9924V7.76816H60.1018V2.22375L57.6394 6.54043H57.4069L54.8791 2.21396Z" fill="black"/>
<path d="M65.7962 4.28086V7.76816H64.9055V0.561737H65.7962V3.95107L68.7595 0.561737H69.8237L66.7228 4.06862L70.0562 7.76816H68.9036L65.7929 4.28086H65.7962Z" fill="black"/>
<path d="M74.6011 1.3454H73.0981V0.561737H76.9915V1.3454H75.4885V7.76816H74.5978V1.3454H74.6011Z" fill="black"/>
<path d="M83.8612 7.99999C81.6509 7.99999 79.9089 6.2792 79.9089 4.15352C79.9089 2.02783 81.6542 0.32663 83.8612 0.32663C84.909 0.32663 85.8848 0.721722 86.5561 1.33233L85.9568 1.94946C85.3642 1.42702 84.6602 1.13641 83.8645 1.13641C82.1781 1.13641 80.8127 2.547 80.8127 4.14045C80.8127 5.7339 82.1781 7.18368 83.8645 7.18368C85.2987 7.18368 86.4709 6.01471 86.6052 4.60411L84.1461 4.61392L84.503 3.79434H87.5253V4.16984C87.5253 6.27593 85.9077 7.99673 83.8645 7.99673L83.8612 7.99999Z" fill="black"/>
</svg>
