<svg width="10" height="10" viewBox="0 0 10 10" fill="none" xmlns="http://www.w3.org/2000/svg">
<g clip-path="url(#clip0_597_713)">
<path d="M9.65777 4.32067C9.51259 2.12236 7.75326 0.363022 5.55149 0.217851V0.207481H4.96389V0.217851C2.76559 0.363022 1.00625 2.12236 0.861077 4.32067H0.850708V4.90827H0.861077C1.00625 7.11003 2.76559 8.86937 4.96389 9.01108V9.02145H5.55149V9.01108C7.75326 8.86591 9.50914 7.10657 9.65431 4.90827H9.66468V4.32067H9.65431H9.65777ZM3.60896 1.16838C3.32553 1.54513 3.08704 2.01867 2.91767 2.55787H2.03627C2.41994 1.95991 2.9626 1.476 3.60896 1.16838ZM1.73211 3.14547H2.76559C2.68609 3.51531 2.6377 3.90935 2.62041 4.32067H1.44868C1.47978 3.90589 1.57656 3.51186 1.72865 3.14547H1.73211ZM1.44868 4.90827H2.61696C2.63424 5.31958 2.68263 5.71362 2.76213 6.08346H1.72865C1.57656 5.71708 1.47633 5.32304 1.44868 4.90827ZM2.03973 6.67106H2.91767C3.09049 7.21027 3.32553 7.6838 3.60896 8.06056C2.96606 7.75293 2.41994 7.26903 2.03627 6.67106H2.03973ZM4.96389 8.39929C4.35901 8.23684 3.84055 7.58702 3.52255 6.67452H4.96389V8.39929ZM4.96389 6.08346H3.3601C3.27714 5.71708 3.2253 5.32304 3.20801 4.90827H4.96389V6.08346ZM4.96389 4.32067H3.20801C3.2253 3.90589 3.27714 3.51186 3.3601 3.14547H4.96389V4.32067ZM4.96389 2.55787H3.52255C3.83709 1.64191 4.35901 0.995554 4.96389 0.8331V2.55787ZM8.47911 2.55787H7.60117C7.42835 2.01867 7.19331 1.54513 6.90988 1.16838C7.55278 1.476 8.0989 1.95991 8.48257 2.55787H8.47911ZM5.55149 0.8331C6.15637 0.995554 6.67484 1.64191 6.99284 2.55787H5.55149V0.8331ZM5.55149 3.14547H7.15529C7.23824 3.51186 7.29009 3.90589 7.30737 4.32067H5.55149V3.14547ZM5.55149 4.90827H7.30737C7.29009 5.32304 7.23824 5.71708 7.15529 6.08346H5.55149V4.90827ZM5.55149 8.39929V6.67452H6.99284C6.6783 7.59048 6.15637 8.24029 5.55149 8.39929ZM6.90642 8.06401C7.18985 7.68726 7.42489 7.21372 7.59772 6.67452H8.47566C8.09199 7.27248 7.54933 7.75639 6.90297 8.06401H6.90642ZM8.78674 6.08346H7.75326C7.83276 5.71362 7.88115 5.31613 7.89843 4.90827H9.06671C9.0356 5.32304 8.93882 5.71708 8.78674 6.08346ZM7.89843 4.32067C7.88115 3.90935 7.83276 3.51531 7.75326 3.14547H8.78674C8.93882 3.51186 9.0356 3.90589 9.06671 4.32067H7.89843Z" fill="#FB580C"/>
</g>
<defs>
<clipPath id="clip0_597_713">
<rect width="8.81743" height="8.81743" fill="white" transform="translate(0.850708 0.207481)"/>
</clipPath>
</defs>
</svg>
