<svg width="10" height="7" viewBox="0 0 10 7" fill="none" xmlns="http://www.w3.org/2000/svg">
<g clip-path="url(#clip0_597_715)">
<path d="M8.87012 0.767639C8.88634 0.773765 8.90582 0.773765 8.92529 0.779891C9.03888 0.813585 9.12651 0.908538 9.14598 1.01881C9.15897 2.64221 9.14598 4.26868 9.15248 5.89208C9.13949 6.4955 8.64618 6.9672 8.00681 6.99171H1.98965C1.40221 6.97026 0.925121 6.55982 0.856966 6.01154L0.847229 5.91046V1.04331C0.863457 0.908538 0.986786 0.782954 1.12959 0.767639H8.87012ZM8.05549 1.37106H1.94421L5.00147 4.25336L8.05549 1.37106ZM8.50987 1.79988C8.48715 1.82132 8.45794 1.84276 8.43522 1.8642C8.40276 1.89177 8.37355 1.92546 8.34434 1.95303C7.30578 2.93626 6.26398 3.91337 5.22541 4.8966C5.09884 5.00993 4.90086 5.00993 4.77429 4.8966C3.86555 4.03895 2.95681 3.1813 2.04807 2.32366C1.86307 2.14906 1.67808 1.97141 1.48984 1.79988V5.92884C1.50931 6.16775 1.71378 6.36685 1.96693 6.38829H8.02953C8.28593 6.36685 8.49364 6.16469 8.50987 5.92271V1.79988Z" fill="#FB580C"/>
</g>
<defs>
<clipPath id="clip0_597_715">
<rect width="8.29875" height="6.22407" fill="white" transform="translate(0.850708 0.767639)"/>
</clipPath>
</defs>
</svg>
