<svg width="10" height="10" viewBox="0 0 10 10" fill="none" xmlns="http://www.w3.org/2000/svg">
<g clip-path="url(#clip0_597_711)">
<path d="M0.767526 1.55359C0.767526 1.55359 0.774385 1.5467 0.781244 1.54326C0.921857 1.42266 1.05218 1.29172 1.17564 1.16079L1.22023 1.11255C1.29225 1.03674 1.36084 0.967832 1.43629 0.895473C1.78611 0.557799 2.21138 0.561244 2.5509 0.90581L3.69295 2.05321C3.85757 2.20827 3.94674 2.39778 3.94674 2.59418C3.94674 2.79058 3.85757 2.98009 3.69295 3.14548L2.98303 3.85873C2.96245 3.88285 2.93844 3.91042 2.93844 3.94143C2.93844 3.94832 2.93844 3.9621 2.95216 3.99312C2.95216 3.99656 2.95902 4.00345 2.95902 4.0069C3.00018 4.07581 3.04133 4.15506 3.07906 4.23431C3.11335 4.30667 3.15451 4.38592 3.20252 4.46172C3.60378 5.09917 4.12851 5.68149 4.80756 6.23279C4.80756 6.23279 4.80756 6.23624 4.81442 6.23968C5.18824 6.53256 5.4969 6.72552 5.81243 6.85645C5.88445 6.88057 5.89816 6.88057 5.94961 6.83233C5.94961 6.83233 5.94961 6.83233 5.95304 6.82889C6.11423 6.64971 6.27542 6.48777 6.46404 6.29826C6.5052 6.25691 6.54635 6.21556 6.58751 6.17421L6.64581 6.11908C6.99563 5.77107 7.41061 5.77107 7.75699 6.11908L8.31944 6.68417C8.35374 6.71863 8.38803 6.75308 8.42233 6.78754C8.45663 6.81855 8.48749 6.84956 8.52179 6.88057C8.66583 7.02184 8.78586 7.139 8.90247 7.26649C9.06023 7.42843 9.14597 7.6145 9.14597 7.80745C9.14597 8.00041 9.06366 8.18648 8.90933 8.35187C8.90933 8.35187 8.9059 8.35531 8.90247 8.35876L8.19598 9.07201C7.96963 9.29942 7.69183 9.42691 7.37288 9.45792C6.93733 9.49582 6.49148 9.41657 5.92903 9.20294C5.0442 8.87561 4.22453 8.37943 3.3397 7.64551C2.27997 6.75308 1.44315 5.68149 0.853265 4.45139C0.633773 3.98967 0.376555 3.37634 0.33197 2.69755C0.33197 2.65965 0.33197 2.6183 0.33197 2.58384C0.33197 2.16692 0.476012 1.82924 0.767526 1.55359ZM8.48406 7.80745C8.48406 7.80745 8.47377 7.77644 8.43262 7.7351L8.42576 7.7282C8.42576 7.7282 8.42233 7.72476 8.4189 7.72131C8.30915 7.60416 8.19598 7.49045 8.0588 7.35607C8.0245 7.32162 7.99363 7.29061 7.95934 7.25615C7.92504 7.22169 7.89075 7.19068 7.85302 7.15278L7.28714 6.58425C7.2357 6.53256 7.20483 6.51878 7.20483 6.51533C7.19797 6.51533 7.16368 6.53256 7.11223 6.58425L7.05393 6.64282C7.01621 6.68073 6.97848 6.71863 6.94075 6.75653C6.94075 6.75653 6.93733 6.76342 6.9339 6.76342C6.7487 6.94604 6.59437 7.10109 6.44347 7.26993C6.43661 7.27682 6.42289 7.29061 6.40574 7.30783C6.18282 7.52146 5.91874 7.58004 5.61008 7.48356L5.59293 7.47667C5.59293 7.47667 5.57921 7.46978 5.57236 7.46978C5.18824 7.31128 4.82814 7.08731 4.39944 6.74964C4.39601 6.74964 4.39258 6.74275 4.38915 6.7393C3.65523 6.13976 3.08249 5.5092 2.6435 4.80974C2.57834 4.70637 2.5269 4.603 2.48574 4.5203C2.45145 4.45139 2.42058 4.38937 2.39314 4.34113C2.39314 4.33768 2.38628 4.33079 2.38628 4.32734C2.37942 4.31356 2.36914 4.29978 2.36571 4.28944C2.3074 4.17229 2.27654 4.05514 2.27654 3.93454C2.27654 3.7278 2.35542 3.54173 2.51661 3.38323L3.22653 2.66998C3.27111 2.62864 3.28483 2.59418 3.28483 2.59418C3.28483 2.58729 3.27111 2.56317 3.24025 2.5356C3.23682 2.5356 3.23339 2.52871 3.22996 2.52527L2.08105 1.36753C2.02275 1.30895 1.99531 1.30551 1.99531 1.30551C1.99531 1.30551 1.95759 1.31584 1.90614 1.36408C1.89928 1.37097 1.89243 1.37786 1.88214 1.38476C1.8204 1.44333 1.7621 1.50535 1.70037 1.56738L1.65578 1.61217C1.52546 1.74999 1.38485 1.89471 1.22023 2.03254C1.0659 2.1807 1.00074 2.3392 1.00074 2.57006C1.00074 2.59418 1.00074 2.62175 1.00074 2.64242C1.03503 3.20751 1.26138 3.74158 1.45344 4.14817C2.00217 5.28524 2.78068 6.28448 3.7684 7.11488C4.5915 7.80056 5.35286 8.25883 6.16224 8.56205C6.62866 8.73778 6.98534 8.80325 7.31801 8.77568C7.48263 8.7619 7.60952 8.70332 7.72956 8.58617L8.43605 7.87981C8.4772 7.83157 8.49092 7.80056 8.49092 7.79367L8.48406 7.80745Z" fill="#FB580C"/>
</g>
<defs>
<clipPath id="clip0_597_711">
<rect width="8.81743" height="8.81743" fill="white" transform="translate(0.33197 0.647308)"/>
</clipPath>
</defs>
</svg>
