<svg width="8" height="11" viewBox="0 0 8 11" fill="none" xmlns="http://www.w3.org/2000/svg">
<g clip-path="url(#clip0_597_717)">
<path d="M4.02369 10.3169L0.913225 5.49179C0.0260841 3.69105 0.818304 1.51044 2.66925 0.743385C5.51686 -0.436412 8.32432 2.40898 7.19257 5.23246C6.22512 6.97841 5.03496 8.59287 4.02369 10.3133V10.3169ZM4.02369 9.6156C4.02369 9.57177 4.04195 9.53524 4.06385 9.49872C4.88893 8.15821 5.98417 6.74464 6.70337 5.37856C8.13083 2.65736 5.14083 -0.242823 2.48306 1.2584C0.960685 2.11677 0.515289 3.99422 1.35862 5.50275C2.12163 6.86883 3.16576 8.16916 3.93973 9.5389L4.02369 9.61195V9.6156Z" fill="#FB580C"/>
<path d="M4.03103 10.6641L0.759925 5.59058C0.299926 4.65916 0.245164 3.59259 0.602941 2.64291C0.957067 1.69688 1.66897 0.962707 2.59992 0.575529C3.97262 0.00572059 5.48404 0.301583 6.53547 1.34258C7.60149 2.39453 7.91546 3.91403 7.36054 5.30202C6.80927 6.30284 6.18864 7.25252 5.58626 8.17298C5.11166 8.89985 4.62246 9.64864 4.17706 10.4047L4.02738 10.6604L4.03103 10.6641ZM3.84484 9.70343L4.01642 9.97007C4.03468 9.9372 4.05293 9.90798 4.07119 9.8751L3.84119 9.70343H3.84484ZM5.21388 8.08167C4.87436 8.58208 4.52388 9.09709 4.22087 9.59385V9.63768C4.54579 9.1117 4.88166 8.58938 5.21388 8.08167ZM2.76421 8.02688L3.59293 9.3126C3.33373 8.87794 3.04897 8.45058 2.76421 8.02688ZM4.00182 1.03211C3.51992 1.03211 3.03071 1.15995 2.57436 1.41563C1.17246 2.20825 0.708814 3.96516 1.51564 5.41525C1.89897 6.10195 2.36627 6.78864 2.81897 7.45341C3.22055 8.04149 3.63309 8.65147 3.99452 9.26877C4.29754 8.78297 4.63706 8.28621 4.96563 7.80041C5.52785 6.97127 6.11197 6.11656 6.54277 5.29106C7.1561 4.12588 6.9407 2.77806 5.9988 1.8649C5.43658 1.31701 4.72468 1.03576 4.00547 1.03576L4.00182 1.03211ZM4.01277 0.655887C3.58928 0.655887 3.15849 0.739897 2.7423 0.911571C1.90627 1.25857 1.26738 1.91604 0.946115 2.7671C0.624846 3.62182 0.672306 4.58246 1.08119 5.40795L1.21992 5.6198C1.21992 5.6198 1.20897 5.59788 1.20167 5.58693C0.288973 3.96516 0.814687 1.98909 2.39183 1.10151C3.67325 0.378288 5.18833 0.575529 6.25071 1.60192C7.27658 2.59908 7.53578 4.04552 6.9334 5.32759C6.96626 5.26915 7.00277 5.20705 7.03562 5.14861C7.52483 3.91768 7.24007 2.5516 6.28356 1.60557C5.65563 0.984623 4.8488 0.65954 4.01642 0.65954L4.01277 0.655887Z" fill="#FB580C"/>
<path d="M3.70243 2.1606C6.3821 1.83917 6.48433 5.78034 4.00544 5.79495C1.74196 5.80956 1.57037 2.41628 3.70243 2.1606ZM3.69878 2.54777C2.02307 2.81076 2.27132 5.55753 4.10766 5.40778C6.02798 5.25071 5.78703 2.22269 3.69878 2.54777Z" fill="#FB580C"/>
<path d="M3.99085 5.98124C2.72038 5.98124 2.08149 5.00234 2.02308 4.08553C1.96467 3.17603 2.46117 2.12772 3.68054 1.98162C4.50927 1.883 5.19561 2.15695 5.6118 2.75598C6.04625 3.38423 6.09736 4.27181 5.73593 4.96581C5.40371 5.60502 4.77577 5.97393 4.00911 5.97759H3.99085V5.98124ZM3.72435 2.34323C2.73863 2.46011 2.3407 3.31483 2.38816 4.05996C2.43562 4.83432 2.95038 5.61233 3.99085 5.61233H4.00546C4.64069 5.60867 5.14085 5.32012 5.41101 4.79779C5.71037 4.22068 5.67022 3.48285 5.30879 2.96417C4.97292 2.48203 4.40704 2.25922 3.72435 2.34323ZM3.96165 5.59406C3.01244 5.59406 2.49038 4.86719 2.40641 4.15493C2.31514 3.38057 2.72038 2.5149 3.67324 2.36515C4.34133 2.26287 4.8999 2.46011 5.25768 2.92765C5.62641 3.40979 5.70672 4.1111 5.45482 4.67725C5.22117 5.20688 4.73561 5.53562 4.12228 5.58676C4.06752 5.59041 4.01641 5.59406 3.96165 5.59406ZM3.728 2.72675C2.96863 2.84729 2.69848 3.52668 2.76784 4.1111C2.84086 4.71378 3.28625 5.29089 4.09308 5.22149C4.57498 5.18132 4.94006 4.93659 5.11895 4.5275C5.31609 4.08188 5.25403 3.52668 4.96561 3.15046C4.6918 2.79615 4.25371 2.64274 3.728 2.72675Z" fill="#FB580C"/>
</g>
<defs>
<clipPath id="clip0_597_717">
<rect width="7.26141" height="10.3734" fill="white" transform="translate(0.369324 0.290466)"/>
</clipPath>
</defs>
</svg>
